<?xml version="1.0" encoding="UTF-8"?>
<svg width="224px" height="143px" viewBox="0 0 224 143" version="1.1" xmlns="http://www.w3.org/2000/svg" xmlns:xlink="http://www.w3.org/1999/xlink">
    <title>Link</title>
    <defs>
        <path d="M17,7 L14,7 C13.45,7 13,7.45 13,8 C13,8.55 13.45,9 14,9 L17,9 C18.65,9 20,10.35 20,12 C20,13.65 18.65,15 17,15 L14,15 C13.45,15 13,15.45 13,16 C13,16.55 13.45,17 14,17 L17,17 C19.76,17 22,14.76 22,12 C22,9.24 19.76,7 17,7 Z M8,12 C8,12.55 8.45,13 9,13 L15,13 C15.55,13 16,12.55 16,12 C16,11.45 15.55,11 15,11 L9,11 C8.45,11 8,11.45 8,12 Z M10,15 L7,15 C5.35,15 4,13.65 4,12 C4,10.35 5.35,9 7,9 L10,9 C10.55,9 11,8.55 11,8 C11,7.45 10.55,7 10,7 L7,7 C4.24,7 2,9.24 2,12 C2,14.76 4.24,17 7,17 L10,17 C10.55,17 11,16.55 11,16 C11,15.45 10.55,15 10,15 Z" id="path-1"></path>
    </defs>
    <g id="Link" stroke="none" stroke-width="1" fill="none" fill-rule="evenodd">
        <path d="M21.4042453,129.786741 L202.60352,129.786741 C206.348203,129.786741 209.391019,126.743579 209.391019,123.004889 L209.391019,6.78185251 C209.391019,3.04614186 206.348203,0 202.60352,0 L21.4042453,0 C17.6595627,0 14.6089813,3.04614186 14.6089813,6.78185251 L14.6089813,123.004889 C14.6089813,126.743579 17.6595627,129.786741 21.4042453,129.786741 Z M20.4383573,6.78185251 C20.4383573,6.24426301 20.8654507,5.80858903 21.4042453,5.80858903 L202.60352,5.80858903 C203.135147,5.80858903 203.571797,6.24426301 203.571797,6.78185251 L203.571797,123.004889 C203.571797,123.535326 203.135147,123.971 202.60352,123.971 L21.4042453,123.971 C20.8654507,123.971 20.4383573,123.535326 20.4383573,123.004889 L20.4383573,6.78185251 Z M224,134.970725 L224,140.389532 C224,141.837805 222.832811,143 221.391445,143 L2.60676267,143 C1.1648,143 0,141.828269 0,140.389532 L0,134.970725 L91.997696,134.970725 C92.4540587,136.483962 93.8374827,137.590729 95.50464,137.590729 L128.503125,137.590729 C130.163115,137.590729 131.556096,136.483962 132.010069,134.970725 L224,134.970725 Z" id="Shape" fill="#EAEAEA" fill-rule="nonzero"></path>
        <g id="icon/content/link_24px" transform="translate(100.000000, 59.500000)">
            <mask id="mask-2" fill="white">
                <use xlink:href="#path-1"></use>
            </mask>
            <g fill-rule="nonzero"></g>
            <g id="↳-Color" mask="url(#mask-2)" fill="#0045A5">
                <rect id="Rectangle" x="0" y="0" width="24" height="24"></rect>
            </g>
        </g>
    </g>
</svg>