<?xml version="1.0" encoding="UTF-8"?>
<svg width="224px" height="143px" viewBox="0 0 224 143" version="1.1" xmlns="http://www.w3.org/2000/svg" xmlns:xlink="http://www.w3.org/1999/xlink">
    <title>Side</title>
    <g id="Side" stroke="none" stroke-width="1" fill="none" fill-rule="evenodd">
        <path d="M26,1 L69,1 C70.1045695,1 71,1.8954305 71,3 L71,127 C71,128.104569 70.1045695,129 69,129 L26,129 C19.9248678,129 15,124.075132 15,118 L15,12 C15,5.92486775 19.9248678,1 26,1 Z" id="Rectangle" fill="#0045A5"></path>
        <path d="M21.4042453,129.786741 L202.60352,129.786741 C206.348203,129.786741 209.391019,126.743579 209.391019,123.004889 L209.391019,6.78185251 C209.391019,3.04614186 206.348203,0 202.60352,0 L21.4042453,0 C17.6595627,0 14.6089813,3.04614186 14.6089813,6.78185251 L14.6089813,123.004889 C14.6089813,126.743579 17.6595627,129.786741 21.4042453,129.786741 Z M20.4383573,6.78185251 C20.4383573,6.24426301 20.8654507,5.80858903 21.4042453,5.80858903 L202.60352,5.80858903 C203.135147,5.80858903 203.571797,6.24426301 203.571797,6.78185251 L203.571797,123.004889 C203.571797,123.535326 203.135147,123.971 202.60352,123.971 L21.4042453,123.971 C20.8654507,123.971 20.4383573,123.535326 20.4383573,123.004889 L20.4383573,6.78185251 Z M224,134.970725 L224,140.389532 C224,141.837805 222.832811,143 221.391445,143 L2.60676267,143 C1.1648,143 0,141.828269 0,140.389532 L0,134.970725 L91.997696,134.970725 C92.4540587,136.483962 93.8374827,137.590729 95.50464,137.590729 L128.503125,137.590729 C130.163115,137.590729 131.556096,136.483962 132.010069,134.970725 L224,134.970725 Z" id="Shape" fill="#EAEAEA" fill-rule="nonzero"></path>
    </g>
</svg>