<?xml version="1.0" encoding="UTF-8" standalone="no"?><!DOCTYPE svg PUBLIC "-//W3C//DTD SVG 1.1//EN" "http://www.w3.org/Graphics/SVG/1.1/DTD/svg11.dtd"><svg width="100%" height="100%" viewBox="0 0 4931 1100" version="1.1" xmlns="http://www.w3.org/2000/svg" xmlns:xlink="http://www.w3.org/1999/xlink" xml:space="preserve" xmlns:serif="http://www.serif.com/" style="fill-rule:evenodd;clip-rule:evenodd;stroke-linejoin:round;stroke-miterlimit:1.41421;"><rect id="logo-color-transparentbg" x="0.752" y="0" width="4930" height="1099.97" style="fill:none;"/><g><g><path d="M1488.43,736.693l-72.961,0l0,-65.973c-22.749,46.961 -64.998,67.923 -120.409,68.573c-77.186,0 -123.497,-49.561 -123.497,-129.997l0,-209.782l72.798,0l0,189.47c0,50.699 29.899,81.248 78.648,81.248c58.336,-1.3 92.46,-46.148 92.46,-105.134l0,-165.584l72.961,0l0,337.179Z" style="fill:#021836;fill-rule:nonzero;"/><path d="M1814.88,430.551l-26.649,53.949c-29.343,-18.276 -62.953,-28.583 -97.498,-29.9c-28.436,0 -48.748,9.588 -48.748,33.637c0,62.073 178.745,28.599 178.745,150.796c0,69.061 -61.586,100.26 -129.997,100.26c-49.296,0.881 -97.339,-15.767 -135.521,-46.961l25.837,-51.999c32.082,26.421 72.192,41.204 113.747,41.924c31.036,0 55.086,-10.887 55.086,-36.236c0,-69.061 -177.446,-30.387 -176.796,-152.097c0,-68.41 59.474,-97.497 124.147,-97.497c41.697,-0.322 82.594,11.54 117.647,34.124Z" style="fill:#021836;fill-rule:nonzero;"/><path d="M2197.89,595.972l-254.631,0c9.05,49.979 53.887,86.112 104.647,84.335c35.705,0.387 70.063,-13.826 95.061,-39.324l38.674,41.274c-36.183,38.023 -86.964,58.797 -139.422,57.036c-103.997,0 -172.408,-69.223 -172.408,-170.621c0,-101.397 70.361,-171.108 170.458,-171.595c118.46,0 166.721,77.185 157.621,198.895Zm-63.373,-53.136c-2.6,-54.599 -38.674,-87.586 -93.76,-87.586c-50.728,-1.74 -94.524,37.022 -98.96,87.586l192.72,0Z" style="fill:#021836;fill-rule:nonzero;"/><path d="M2347.06,466.625c21.24,-44.446 67.308,-71.945 116.51,-69.548l0,69.548c-67.761,-3.737 -110.822,36.237 -116.51,93.923l0,176.145l-72.96,0l0,-337.179l72.96,0l0,67.111Z" style="fill:#021836;fill-rule:nonzero;"/><path d="M2799.12,450.863l-27.299,34.937c-26.808,-25.493 -62.624,-39.398 -99.61,-38.675c-69.061,0 -118.46,50.049 -118.46,122.847c0,72.799 48.749,123.66 118.46,123.66c39.218,2.288 77.433,-13.321 103.835,-42.412l28.599,30.55c-33.472,38.528 -82.739,59.78 -133.734,57.686c-97.498,0 -165.421,-69.224 -165.421,-168.671c0,-99.448 69.061,-168.508 165.421,-168.508c47.615,-2.362 94.118,15.26 128.209,48.586Z" style="fill:#021836;fill-rule:nonzero;"/><path d="M3166.52,588.984l-272.505,0c5.466,61.728 59.14,108.918 121.059,106.435c38.691,1.049 76.115,-14.098 103.185,-41.761l27.3,29.249c-34.629,37.09 -83.671,57.43 -134.385,55.736c-97.497,0 -166.07,-69.223 -166.07,-168.671c0,-99.447 68.573,-168.508 165.258,-168.508c107.897,-0.65 161.196,74.098 156.158,187.52Zm-44.361,-40.461c-3.25,-64.023 -46.311,-104.647 -111.635,-104.647c-60.305,-2.154 -112.2,44.457 -116.509,104.647l228.144,0Z" style="fill:#021836;fill-rule:nonzero;"/><path d="M3540.59,530.648l0,206.045l-48.749,0l0,-192.72c0,-58.823 -35.424,-93.76 -94.41,-93.76c-65.973,0 -106.435,43.711 -112.122,107.085l0,178.745l-48.749,0l0,-333.279l48.749,0l0,73.448c23.399,-50.698 68.411,-74.748 129.997,-75.398c78.485,0 125.284,49.399 125.284,129.834Z" style="fill:#021836;fill-rule:nonzero;"/><path d="M3806.6,713.944c-22.157,15.548 -48.348,24.354 -75.398,25.349c-48.749,0 -84.986,-29.249 -84.986,-95.06l0,-190.77l-48.748,0l0,-39.974l48.748,0l0,-87.26l48.749,0l0,88.072l105.785,0l0,40.624l-105.785,0l0,180.046c0,40.624 16.25,55.736 44.199,55.736c19.015,-0.566 37.49,-6.481 53.299,-17.062l14.137,40.299Z" style="fill:#021836;fill-rule:nonzero;"/><path d="M3947.48,476.862c20.242,-47.699 68.145,-78.076 119.922,-76.048l0,50.049c-70.361,-1.3 -113.747,42.411 -119.922,108.385l0,177.445l-48.749,0l0,-333.929l48.749,0l0,74.098Z" style="fill:#021836;fill-rule:nonzero;"/><path d="M4206.5,307.054c0,17.829 -14.67,32.499 -32.499,32.499c-17.828,0 -32.499,-14.67 -32.499,-32.499c0,-17.829 14.671,-32.499 32.499,-32.499c17.829,0 32.499,14.67 32.499,32.499Zm-56.386,429.639l0,-333.929l48.749,0l0,333.929l-48.749,0Z" style="fill:#021836;fill-rule:nonzero;"/><path d="M4563.66,450.863l-27.3,34.937c-26.757,-25.468 -62.514,-39.373 -99.447,-38.675c-69.224,0 -118.622,50.049 -118.622,122.847c0,72.799 48.748,123.66 118.622,123.66c38.996,2.089 76.929,-13.502 103.185,-42.412l28.599,30.55c-33.458,38.548 -82.735,59.804 -133.734,57.686c-97.498,0 -165.421,-69.224 -165.421,-168.671c0,-99.448 69.061,-168.508 165.421,-168.508c47.781,-2.5 94.489,15.133 128.697,48.586Z" style="fill:#021836;fill-rule:nonzero;"/><path d="M4853.88,431.201l-19.012,39.324c-27.187,-17.151 -58.535,-26.589 -90.672,-27.299c-37.375,0 -65.811,13.324 -65.811,44.361c0,74.098 186.22,36.237 186.22,155.996c0,64.998 -58.336,95.06 -122.197,95.06c-47.033,0.878 -92.733,-15.883 -128.047,-46.961l19.012,-37.374c30.569,27.099 69.972,42.178 110.823,42.411c39.324,0 71.01,-14.462 71.66,-47.449c1.95,-81.248 -185.083,-39.324 -184.433,-157.783c0,-64.024 55.086,-90.673 116.022,-90.673c37.677,-0.458 74.679,10.106 106.435,30.387Z" style="fill:#021836;fill-rule:nonzero;"/></g><g><circle cx="628.808" cy="557.623" r="211.245" style="fill:#0096ff;"/><circle cx="1062.02" cy="131.233" r="81.248" style="fill:#b8cee1;"/><circle cx="899.689" cy="903.739" r="146.246" style="fill:#0045a5;"/><circle cx="180.644" cy="735.068" r="113.747" style="fill:#f25800;"/></g></g></svg>